<mxfile host="app.diagrams.net" modified="2022-05-13T06:01:50.031Z" agent="5.0 (Windows NT 10.0; Win64; x64) AppleWebKit/537.36 (KHTML, like Gecko) Chrome/101.0.4951.64 Safari/537.36" etag="LRmJCX2T5q5P8ACy961S" version="18.0.3" type="github">
  <diagram id="oyW2D6xGlRdUj5hziBNp" name="Page-1">
    <mxGraphModel dx="1038" dy="529" grid="1" gridSize="10" guides="1" tooltips="1" connect="1" arrows="1" fold="1" page="1" pageScale="1" pageWidth="827" pageHeight="1169" math="1" shadow="0">
      <root>
        <mxCell id="0" />
        <mxCell id="1" parent="0" />
        <mxCell id="OKm6GU7d_KGXLcCDdDa2-3" value="&#xa;&lt;span style=&quot;color: rgba(0, 0, 0, 0); font-family: serif; font-size: 20px; font-style: normal; font-variant-ligatures: normal; font-variant-caps: normal; font-weight: 400; letter-spacing: normal; orphans: 2; text-align: start; text-indent: 0px; text-transform: none; widows: 2; word-spacing: 0px; -webkit-text-stroke-width: 0px; background-color: rgb(255, 255, 255); text-decoration-thickness: initial; text-decoration-style: initial; text-decoration-color: initial; float: none; display: inline !important;&quot;&gt; &lt;/span&gt;&#xa;&#xa;" style="edgeStyle=orthogonalEdgeStyle;curved=1;rounded=0;orthogonalLoop=1;jettySize=auto;html=1;entryX=1;entryY=0.5;entryDx=0;entryDy=0;dashed=1;" edge="1" parent="1" source="OKm6GU7d_KGXLcCDdDa2-1" target="OKm6GU7d_KGXLcCDdDa2-1">
          <mxGeometry relative="1" as="geometry">
            <mxPoint x="120" y="70" as="targetPoint" />
            <Array as="points">
              <mxPoint x="130" y="125" />
              <mxPoint x="130" y="100" />
              <mxPoint x="160" y="100" />
              <mxPoint x="160" y="125" />
            </Array>
          </mxGeometry>
        </mxCell>
        <mxCell id="OKm6GU7d_KGXLcCDdDa2-5" value="&lt;span style=&quot;padding: 0px; margin: 0px; color: transparent; position: absolute; cursor: text; transform-origin: 0% 0%; text-align: start; left: 431.318px; top: 120.702px; font-size: 20px; font-family: serif; transform: scaleX(0.924071);&quot; dir=&quot;ltr&quot; role=&quot;presentation&quot;&gt;í µí¼–&lt;/span&gt;&lt;div&gt;&lt;br&gt;&lt;/div&gt;" style="edgeLabel;html=1;align=center;verticalAlign=middle;resizable=0;points=[];" vertex="1" connectable="0" parent="OKm6GU7d_KGXLcCDdDa2-3">
          <mxGeometry x="-0.204" y="1" relative="1" as="geometry">
            <mxPoint as="offset" />
          </mxGeometry>
        </mxCell>
        <mxCell id="OKm6GU7d_KGXLcCDdDa2-1" value="" style="ellipse;whiteSpace=wrap;html=1;aspect=fixed;fillColor=#000000;" vertex="1" parent="1">
          <mxGeometry x="140" y="120" width="10" height="10" as="geometry" />
        </mxCell>
        <mxCell id="OKm6GU7d_KGXLcCDdDa2-8" value="$$A\ ::=\ \epsilon$$" style="text;html=1;strokeColor=none;fillColor=none;align=center;verticalAlign=middle;whiteSpace=wrap;rounded=0;fontSize=18;" vertex="1" parent="1">
          <mxGeometry x="91.25" y="170" width="107.5" height="40" as="geometry" />
        </mxCell>
        <mxCell id="OKm6GU7d_KGXLcCDdDa2-15" style="rounded=0;orthogonalLoop=1;jettySize=auto;html=1;exitX=1;exitY=0.5;exitDx=0;exitDy=0;entryX=0;entryY=0.5;entryDx=0;entryDy=0;fontSize=18;" edge="1" parent="1" source="OKm6GU7d_KGXLcCDdDa2-11" target="OKm6GU7d_KGXLcCDdDa2-14">
          <mxGeometry relative="1" as="geometry" />
        </mxCell>
        <mxCell id="OKm6GU7d_KGXLcCDdDa2-16" style="edgeStyle=orthogonalEdgeStyle;rounded=0;orthogonalLoop=1;jettySize=auto;html=1;exitX=0;exitY=0.5;exitDx=0;exitDy=0;entryX=0.5;entryY=0;entryDx=0;entryDy=0;fontSize=18;curved=1;dashed=1;" edge="1" parent="1" source="OKm6GU7d_KGXLcCDdDa2-11" target="OKm6GU7d_KGXLcCDdDa2-14">
          <mxGeometry relative="1" as="geometry">
            <Array as="points">
              <mxPoint x="280" y="125" />
              <mxPoint x="280" y="100" />
              <mxPoint x="375" y="100" />
            </Array>
          </mxGeometry>
        </mxCell>
        <mxCell id="OKm6GU7d_KGXLcCDdDa2-11" value="" style="ellipse;whiteSpace=wrap;html=1;aspect=fixed;fillColor=#000000;" vertex="1" parent="1">
          <mxGeometry x="275" y="120" width="10" height="10" as="geometry" />
        </mxCell>
        <mxCell id="OKm6GU7d_KGXLcCDdDa2-12" value="$$A$$" style="text;html=1;strokeColor=none;fillColor=none;align=center;verticalAlign=middle;whiteSpace=wrap;rounded=0;fontSize=18;" vertex="1" parent="1">
          <mxGeometry x="115" y="70" width="60" height="30" as="geometry" />
        </mxCell>
        <mxCell id="OKm6GU7d_KGXLcCDdDa2-14" value="" style="ellipse;whiteSpace=wrap;html=1;aspect=fixed;fillColor=#000000;" vertex="1" parent="1">
          <mxGeometry x="370" y="120" width="10" height="10" as="geometry" />
        </mxCell>
        <mxCell id="OKm6GU7d_KGXLcCDdDa2-17" value="$$A$$" style="text;html=1;strokeColor=none;fillColor=none;align=center;verticalAlign=middle;whiteSpace=wrap;rounded=0;fontSize=18;" vertex="1" parent="1">
          <mxGeometry x="300" y="70" width="60" height="30" as="geometry" />
        </mxCell>
        <mxCell id="OKm6GU7d_KGXLcCDdDa2-19" value="$$B$$" style="text;html=1;strokeColor=none;fillColor=none;align=center;verticalAlign=middle;whiteSpace=wrap;rounded=0;fontSize=18;" vertex="1" parent="1">
          <mxGeometry x="296.25" y="120" width="60" height="30" as="geometry" />
        </mxCell>
        <mxCell id="OKm6GU7d_KGXLcCDdDa2-21" value="$$A\ ::=\ B$$" style="text;html=1;strokeColor=none;fillColor=none;align=center;verticalAlign=middle;whiteSpace=wrap;rounded=0;fontSize=18;" vertex="1" parent="1">
          <mxGeometry x="272.5" y="170" width="107.5" height="40" as="geometry" />
        </mxCell>
        <mxCell id="OKm6GU7d_KGXLcCDdDa2-22" style="rounded=0;orthogonalLoop=1;jettySize=auto;html=1;exitX=1;exitY=0.5;exitDx=0;exitDy=0;entryX=0;entryY=0.5;entryDx=0;entryDy=0;fontSize=18;" edge="1" parent="1" source="OKm6GU7d_KGXLcCDdDa2-24" target="OKm6GU7d_KGXLcCDdDa2-25">
          <mxGeometry relative="1" as="geometry" />
        </mxCell>
        <mxCell id="OKm6GU7d_KGXLcCDdDa2-23" style="edgeStyle=orthogonalEdgeStyle;rounded=0;orthogonalLoop=1;jettySize=auto;html=1;exitX=0;exitY=0.5;exitDx=0;exitDy=0;entryX=0.5;entryY=0;entryDx=0;entryDy=0;fontSize=18;curved=1;dashed=1;" edge="1" parent="1" source="OKm6GU7d_KGXLcCDdDa2-24" target="OKm6GU7d_KGXLcCDdDa2-28">
          <mxGeometry relative="1" as="geometry">
            <Array as="points">
              <mxPoint x="485" y="125" />
              <mxPoint x="485" y="100" />
              <mxPoint x="640" y="100" />
            </Array>
          </mxGeometry>
        </mxCell>
        <mxCell id="OKm6GU7d_KGXLcCDdDa2-24" value="" style="ellipse;whiteSpace=wrap;html=1;aspect=fixed;fillColor=#000000;" vertex="1" parent="1">
          <mxGeometry x="480" y="120" width="10" height="10" as="geometry" />
        </mxCell>
        <mxCell id="OKm6GU7d_KGXLcCDdDa2-29" style="edgeStyle=orthogonalEdgeStyle;curved=1;rounded=0;orthogonalLoop=1;jettySize=auto;html=1;entryX=0;entryY=0.5;entryDx=0;entryDy=0;fontSize=18;" edge="1" parent="1" source="OKm6GU7d_KGXLcCDdDa2-25" target="OKm6GU7d_KGXLcCDdDa2-28">
          <mxGeometry relative="1" as="geometry" />
        </mxCell>
        <mxCell id="OKm6GU7d_KGXLcCDdDa2-25" value="" style="ellipse;whiteSpace=wrap;html=1;aspect=fixed;fillColor=#000000;" vertex="1" parent="1">
          <mxGeometry x="561" y="120" width="10" height="10" as="geometry" />
        </mxCell>
        <mxCell id="OKm6GU7d_KGXLcCDdDa2-26" value="$$A$$" style="text;html=1;strokeColor=none;fillColor=none;align=center;verticalAlign=middle;whiteSpace=wrap;rounded=0;fontSize=18;" vertex="1" parent="1">
          <mxGeometry x="536" y="70" width="60" height="30" as="geometry" />
        </mxCell>
        <mxCell id="OKm6GU7d_KGXLcCDdDa2-27" value="$$B$$" style="text;html=1;strokeColor=none;fillColor=none;align=center;verticalAlign=middle;whiteSpace=wrap;rounded=0;fontSize=18;" vertex="1" parent="1">
          <mxGeometry x="490" y="120" width="60" height="30" as="geometry" />
        </mxCell>
        <mxCell id="OKm6GU7d_KGXLcCDdDa2-28" value="" style="ellipse;whiteSpace=wrap;html=1;aspect=fixed;fillColor=#000000;" vertex="1" parent="1">
          <mxGeometry x="635" y="120" width="10" height="10" as="geometry" />
        </mxCell>
        <mxCell id="OKm6GU7d_KGXLcCDdDa2-30" value="$$C$$" style="text;html=1;strokeColor=none;fillColor=none;align=center;verticalAlign=middle;whiteSpace=wrap;rounded=0;fontSize=18;" vertex="1" parent="1">
          <mxGeometry x="570" y="120" width="60" height="30" as="geometry" />
        </mxCell>
        <mxCell id="OKm6GU7d_KGXLcCDdDa2-31" value="$$A\ ::=\ BC$$" style="text;html=1;strokeColor=none;fillColor=none;align=center;verticalAlign=middle;whiteSpace=wrap;rounded=0;fontSize=18;" vertex="1" parent="1">
          <mxGeometry x="512.25" y="170" width="107.5" height="40" as="geometry" />
        </mxCell>
      </root>
    </mxGraphModel>
  </diagram>
</mxfile>
